<?xml version="1.0" encoding="UTF-8" standalone="no"?>
<!-- Created with Inkscape (http://www.inkscape.org/) -->

<svg
   width="144.89679mm"
   height="27.140327mm"
   viewBox="0 0 144.89679 27.140327"
   version="1.1"
   id="svg1"
   xmlns="http://www.w3.org/2000/svg"
   xmlns:svg="http://www.w3.org/2000/svg">
  <defs
     id="defs1" />
  <g
     id="layer1"
     transform="translate(-31.70357,-23.861229)">
    <g
       id="g196"
       transform="matrix(1.2501007,0,0,1.2501007,-162.28378,-205.35647)">
      <path
         d="m 65.296259,15.403205 v 22.5425 h -6.19125 v -8.8265 h -7.5565 v 8.8265 h -6.19125 v -22.5425 h 6.19125 v 8.3185 h 7.5565 v -8.3185 z m 7.747,22.86 q -2.54,0 -3.8735,-1.524 -1.3335,-1.55575 -1.3335,-4.5085 v -10.9855 h 6.0325 v 9.62025 q 0,1.11125 0.47625,1.7145 0.508,0.60325 1.36525,0.60325 0.6985,0 1.42875,-0.3175 0.73025,-0.3175 1.4605,-1.397 v -10.2235 h 6.0325 v 10.033 q 0,0.85725 0.3175,1.2065 0.3175,0.3175 1.143,0.381 v 5.08 q -0.92075,0.15875 -1.61925,0.22225 -0.6985,0.09525 -1.23825,0.09525 -3.07975,0 -3.556,-2.31775 l -0.127,-0.60325 q -1.17475,1.55575 -2.794,2.25425 -1.61925,0.66675 -3.71475,0.66675 z m 25.272997,0 q -3.77825,0 -5.3975,-2.921 v 2.6035 h -5.23875 v -23.1775 h 6.0325 v 8.9535 q 0.73025,-1.36525 2.06375,-2.06375 1.3335,-0.73025 3.14325,-0.73025 1.524004,0 2.825754,0.66675 1.3335,0.66675 2.286,1.8415 0.9525,1.143 1.49225,2.76225 0.53975,1.5875 0.53975,3.46075 0,1.87325 -0.60325,3.46075 -0.5715,1.55575 -1.61925,2.69875 -1.016,1.143 -2.44475,1.80975 -1.428754,0.635 -3.079754,0.635 z m -1.74625,-5.08 q 1.49225,0 2.38125,-0.9525 0.92075,-0.9525 0.92075,-2.54 0,-0.762 -0.254,-1.42875 -0.22225,-0.66675 -0.635,-1.17475 -0.381,-0.508 -0.9525,-0.79375 -0.53975,-0.28575 -1.2065,-0.28575 -0.9525,0 -1.80975,0.6985 -0.85725,0.66675 -1.30175,1.778 v 2.9845 q 1.17475,1.7145 2.8575,1.7145 z"
         id="text36"
         style="font-weight:900;font-size:31.75px;line-height:11.2607px;font-family:Raleway;-inkscape-font-specification:'Raleway, Heavy';letter-spacing:-0.79375px;word-spacing:-0.00264583px;fill:#223382;stroke-width:9.7;stroke-miterlimit:0;paint-order:markers stroke fill"
         transform="matrix(0.79993557,0,0,0.79993557,142.80935,172.12929)"
         aria-label="Hub" />
      <path
         d="m 107.68487,38.104458 v -22.5425 h 6.19125 v 17.145 h 10.2235 v 5.3975 z m 17.46248,0 v -16.7005 h 6.0325 v 16.7005 z m 0,-18.0975 v -5.08 h 6.0325 v 5.08 z m 35.21073,18.0975 h -6.0325 v -9.398 q 0,-1.23825 -0.508,-1.778 -0.47625,-0.5715 -1.17475,-0.5715 -0.73025,0 -1.55575,0.66675 -0.79375,0.66675 -1.17475,1.7145 v 9.36625 h -6.0325 v -9.398 q 0,-1.23825 -0.508,-1.778 -0.47625,-0.5715 -1.17475,-0.5715 -0.73025,0 -1.55575,0.66675 -0.79375,0.66675 -1.17475,1.7145 v 9.36625 h -6.0325 v -16.7005 h 5.42925 v 2.4765 q 0.889,-1.36525 2.44475,-2.06375 1.55575,-0.73025 3.683,-0.73025 1.016,0 1.778,0.254 0.762,0.22225 1.30175,0.635 0.5715,0.41275 0.889,0.92075 0.34925,0.508 0.53975,1.0795 0.889,-1.36525 2.413,-2.12725 1.55575,-0.762 3.52425,-0.762 1.651,0 2.6035,0.635 0.98425,0.60325 1.49225,1.524 0.508,0.92075 0.66675,1.9685 0.15875,1.04775 0.15875,1.905 z"
         id="text37"
         style="font-weight:900;font-size:31.75px;line-height:11.2607px;font-family:Raleway;-inkscape-font-specification:'Raleway, Heavy';letter-spacing:-0.79375px;word-spacing:-0.00264583px;fill:#f18b1c;stroke-width:9.7;stroke-miterlimit:0;paint-order:markers stroke fill"
         transform="matrix(0.79993557,0,0,0.79993557,142.80935,172.12929)"
         aria-label="Lim" />
      <circle
         style="fill:#f18b1c;fill-opacity:1;stroke-width:0"
         id="circle161"
         cx="160.56921"
         cy="194.43806"
         r="1.8519095" />
      <circle
         style="fill:#f18b1c;fill-opacity:1;stroke-width:0"
         id="circle162"
         cx="165.79718"
         cy="193.12698"
         r="2.2452354" />
      <circle
         style="fill:#223382;fill-opacity:1;stroke-width:0"
         id="circle163"
         cx="171.02513"
         cy="194.47084"
         r="1.8519095" />
      <circle
         style="fill:#f18b1c;fill-opacity:1;stroke-width:0"
         id="circle164"
         cx="171.02513"
         cy="194.47084"
         r="1.8519095" />
      <circle
         style="fill:#223382;fill-opacity:1;stroke-width:0"
         id="circle165"
         cx="174.22092"
         cy="187.88264"
         r="1.2783091" />
      <circle
         style="fill:#223382;fill-opacity:1;stroke-width:0"
         id="circle166"
         cx="175.13867"
         cy="193.38921"
         r="0.88498324" />
      <circle
         style="fill:#223382;fill-opacity:1;stroke-width:0"
         id="circle167"
         cx="165.71524"
         cy="187.73514"
         r="0.88498324" />
      <circle
         style="fill:#223382;fill-opacity:1;stroke-width:0"
         id="circle168"
         cx="161.06088"
         cy="190.20981"
         r="0.88498324" />
      <circle
         style="fill:#223382;fill-opacity:1;stroke-width:0"
         id="circle169"
         cx="156.06236"
         cy="193.94641"
         r="0.88498324" />
      <circle
         style="fill:#223382;fill-opacity:1;stroke-width:0"
         id="circle170"
         cx="157.11124"
         cy="189.25928"
         r="1.0488691" />
      <circle
         style="fill:#223382;fill-opacity:1;stroke-width:0"
         id="circle171"
         cx="169.08308"
         cy="192.33214"
         r="0.69651461" />
      <circle
         style="fill:#223382;fill-opacity:1;stroke-width:0"
         id="circle172"
         cx="168.22269"
         cy="184.26076"
         r="0.90137184" />
      <circle
         style="fill:#223382;fill-opacity:1;stroke-width:0"
         id="circle173"
         cx="161.68364"
         cy="184.68686"
         r="1.0980347" />
      <path
         style="baseline-shift:baseline;display:inline;overflow:visible;vector-effect:none;fill:#223382;fill-opacity:1;stroke-width:0.188225;enable-background:accumulate;stop-color:#000000"
         d="m 156.81188,190.03354 -0.77018,3.17923 0.23786,0.0577 0.77017,-3.17924 z"
         id="path173" />
      <path
         style="baseline-shift:baseline;display:inline;overflow:visible;vector-effect:none;fill:#223382;fill-opacity:1;stroke-width:0.188225;enable-background:accumulate;stop-color:#000000"
         d="m 168.07008,184.08937 -6.29266,0.26433 -4.03287,4.1483 0.17536,0.17058 3.96485,-4.07846 6.19561,-0.26027 z"
         id="path174" />
      <path
         style="baseline-shift:baseline;display:inline;overflow:visible;vector-effect:none;fill:#223382;fill-opacity:1;stroke-width:0.188225;enable-background:accumulate;stop-color:#000000"
         d="m 168.07008,184.08937 -6.29266,0.26433 -4.03287,4.1483 0.17536,0.17058 3.96485,-4.07846 6.19561,-0.26027 z"
         id="path175" />
      <path
         style="baseline-shift:baseline;display:inline;overflow:visible;vector-effect:none;fill:#223382;fill-opacity:1;stroke-width:0.188225;enable-background:accumulate;stop-color:#000000"
         d="m 174.12747,187.7752 -0.23932,0.0507 1.17273,5.53756 -1.24994,3.3921 0.22977,0.0845 1.27419,-3.45826 z"
         id="path176" />
      <path
         style="baseline-shift:baseline;display:inline;overflow:visible;vector-effect:none;fill:#223382;fill-opacity:1;stroke-width:0.188225;enable-background:accumulate;stop-color:#000000"
         d="m 168.12339,184.23826 -2.54104,3.51709 -4.63577,2.28444 -4.99752,3.84831 1.22787,3.29688 0.2294,-0.0857 -1.16501,-3.1274 4.8354,-3.72333 4.4571,-2.19656 3.57261,4.44533 5.36918,-4.44239 -8.49695,-0.43049 2.34325,-3.24284 z m -2.43443,3.61635 8.14662,0.41284 -4.69386,3.88325 z"
         id="path177" />
      <path
         style="baseline-shift:baseline;display:inline;overflow:visible;vector-effect:none;fill:#223382;fill-opacity:1;stroke-width:0.188225;enable-background:accumulate;stop-color:#000000"
         d="m 161.56934,184.50774 -0.61504,5.55337 -3.55422,-0.79003 -0.0533,0.23858 3.82074,0.84922 0.5974,-5.39455 3.82699,2.91712 0.14815,-0.19448 z"
         id="path178" />
      <path
         style="baseline-shift:baseline;display:inline;overflow:visible;vector-effect:none;fill:#223382;fill-opacity:1;stroke-width:0.188225;enable-background:accumulate;stop-color:#000000"
         d="m 161.09584,190.08794 -0.16801,0.17793 2.03224,1.91755 0.16763,-0.17794 z"
         id="path179" />
      <path
         style="baseline-shift:baseline;display:inline;overflow:visible;vector-effect:none;fill:#223382;fill-opacity:1;stroke-width:0.188225;enable-background:accumulate;stop-color:#000000"
         d="m 168.30095,184.15518 -0.12389,0.21102 5.98202,3.50716 0.12353,-0.21102 z"
         id="path180" />
      <path
         id="path182"
         style="fill:#f18b1c;fill-opacity:1;stroke:#ff0000;stroke-width:0;stroke-miterlimit:0;paint-order:markers stroke fill"
         d="m 160.56929,196.522 a 2.7450397,2.7450397 0 0 0 -2.73839,2.55358 h -0.007 v 0.19142 2.3639 c 1.20408,1.14603 2.65894,2.03119 4.27561,2.56652 v -5.4367 -0.25776 h 0.009 a 3.6974227,3.6974227 0 0 1 0.31632,-1.25855 2.7450397,2.7450397 0 0 0 -1.85579,-0.72241 z" />
      <path
         id="path183"
         style="fill:#f18b1c;fill-opacity:1;stroke:#ff0000;stroke-width:0;stroke-miterlimit:0;paint-order:markers stroke fill"
         d="m 171.0252,196.47288 a 2.7450397,2.7450397 0 0 0 -1.87163,0.7369 3.6974227,3.6974227 0 0 1 0.33198,1.29318 h 0.009 v 0.25776 5.30518 c 1.62956,-0.58339 3.08614,-1.52514 4.27561,-2.73108 v -2.11704 -0.19142 h -0.007 a 2.7450397,2.7450397 0 0 0 -2.73829,-2.55348 z m 2.745,8.51892 c -0.0375,0.0262 -0.075,0.0522 -0.11283,0.0781 h 0.11283 z" />
      <path
         id="path184"
         style="fill:#f18b1c;fill-opacity:1;stroke:#ff0000;stroke-width:0;stroke-miterlimit:0;paint-order:markers stroke fill"
         d="m 165.79724,195.60428 a 3.3520531,3.3520531 0 0 0 -3.34387,3.11821 h -0.008 v 0.23374 5.35431 c 1.00411,0.28676 2.06537,0.44023 3.16364,0.44023 1.23661,0 2.42632,-0.19459 3.54035,-0.55492 v -5.23962 -0.23374 h -0.008 a 3.3520531,3.3520531 0 0 0 -3.34379,-3.11821 z" />
    </g>
  </g>
</svg>
