<?xml version="1.0" encoding="UTF-8" standalone="no"?>
<!-- Created with Inkscape (http://www.inkscape.org/) -->

<svg
   width="146.22462mm"
   height="146.22462mm"
   viewBox="0 0 146.22462 146.22462"
   version="1.1"
   id="svg1"
   xml:space="preserve"
   xmlns="http://www.w3.org/2000/svg"
   xmlns:svg="http://www.w3.org/2000/svg"><defs
     id="defs1" /><g
     id="layer2"
     transform="translate(-30.499997,-33.460936)"><g
       id="g34"><circle
         style="fill:#223382;fill-opacity:1;stroke-width:0"
         id="circle4"
         cx="76.272552"
         cy="112.40623"
         r="9.83881" /><circle
         style="fill:#223382;fill-opacity:1;stroke-width:0"
         id="path2"
         cx="104.0476"
         cy="105.4407"
         r="11.928469" /><circle
         style="fill:#223382;fill-opacity:1;stroke-width:0"
         id="circle3"
         cx="131.82265"
         cy="112.58037"
         r="9.83881" /><circle
         style="fill:#223382;fill-opacity:1;stroke-width:0"
         id="circle5"
         cx="131.82265"
         cy="112.58037"
         r="9.83881" /><circle
         style="fill:#223382;fill-opacity:1;stroke-width:0"
         id="circle6"
         cx="148.80113"
         cy="77.578583"
         r="6.7913909" /><circle
         style="fill:#223382;fill-opacity:1;stroke-width:0"
         id="circle7"
         cx="153.677"
         cy="106.83381"
         r="4.7017322" /><circle
         style="fill:#223382;fill-opacity:1;stroke-width:0"
         id="circle8"
         cx="103.61226"
         cy="76.79496"
         r="4.7017322" /><circle
         style="fill:#223382;fill-opacity:1;stroke-width:0"
         id="circle9"
         cx="78.884628"
         cy="89.942398"
         r="4.7017322" /><circle
         style="fill:#223382;fill-opacity:1;stroke-width:0"
         id="circle10"
         cx="52.328548"
         cy="109.79416"
         r="4.7017322" /><circle
         style="fill:#223382;fill-opacity:1;stroke-width:0"
         id="circle11"
         cx="57.90097"
         cy="84.892387"
         r="5.5724235" /><circle
         style="fill:#223382;fill-opacity:1;stroke-width:0"
         id="circle12"
         cx="121.50496"
         cy="101.21785"
         r="3.7004373" /><circle
         style="fill:#223382;fill-opacity:1;stroke-width:0"
         id="circle13"
         cx="116.93383"
         cy="58.336308"
         r="4.7888012" /><circle
         style="fill:#223382;fill-opacity:1;stroke-width:0"
         id="circle14"
         cx="82.193253"
         cy="60.600105"
         r="5.8336306" /><path
         style="baseline-shift:baseline;display:inline;overflow:visible;opacity:1;vector-effect:none;fill:#223382;fill-opacity:1;enable-background:accumulate;stop-color:#000000;stop-opacity:1"
         d="m 56.310547,89.005859 -4.091797,16.890621 1.263672,0.30665 4.091797,-16.89063 z"
         id="path14" /><path
         style="baseline-shift:baseline;display:inline;overflow:visible;opacity:1;vector-effect:none;fill:#223382;fill-opacity:1;enable-background:accumulate;stop-color:#000000;stop-opacity:1"
         d="m 116.12305,57.425781 -33.431644,1.404297 -21.425781,22.039063 0.931641,0.90625 21.064453,-21.667969 32.916011,-1.382813 z"
         id="path15" /><path
         style="baseline-shift:baseline;display:inline;overflow:visible;opacity:1;vector-effect:none;fill:#223382;fill-opacity:1;enable-background:accumulate;stop-color:#000000;stop-opacity:1"
         d="m 116.12305,57.425781 -33.431644,1.404297 -21.425781,22.039063 0.931641,0.90625 21.064453,-21.667969 32.916011,-1.382813 z"
         id="path16" /><path
         style="baseline-shift:baseline;display:inline;overflow:visible;opacity:1;vector-effect:none;fill:#223382;fill-opacity:1;enable-background:accumulate;stop-color:#000000;stop-opacity:1"
         d="m 148.30469,77.007812 -1.27149,0.269532 6.23047,29.419926 -6.64062,18.02148 1.2207,0.44922 6.76953,-18.37305 z"
         id="path17" /><path
         style="baseline-shift:baseline;display:inline;overflow:visible;opacity:1;vector-effect:none;fill:#223382;fill-opacity:1;enable-background:accumulate;stop-color:#000000;stop-opacity:1"
         d="m 116.40625,58.216797 -13.5,18.685547 L 78.277344,89.039062 51.726562,109.48438 58.25,127 59.46875,126.54492 53.279297,109.92969 78.96875,90.148437 102.64844,78.478516 121.62891,102.0957 150.1543,78.494141 105.01172,76.207031 117.46094,58.978516 Z m -12.93359,19.21289 43.28125,2.19336 -24.9375,20.630863 z"
         id="path18" /><path
         style="baseline-shift:baseline;display:inline;overflow:visible;opacity:1;vector-effect:none;fill:#223382;fill-opacity:1;enable-background:accumulate;stop-color:#000000;stop-opacity:1"
         d="m 81.585937,59.648437 -3.267578,29.503907 -18.882812,-4.197266 -0.283203,1.267578 20.298828,4.511719 3.173828,-28.660156 20.33203,15.498047 0.78711,-1.033204 z"
         id="path19" /><path
         style="baseline-shift:baseline;display:inline;overflow:visible;opacity:1;vector-effect:none;fill:#223382;fill-opacity:1;enable-background:accumulate;stop-color:#000000;stop-opacity:1"
         d="m 79.070312,89.294922 -0.892578,0.945312 10.796875,10.187496 0.890625,-0.945308 z"
         id="path20" /><path
         style="baseline-shift:baseline;display:inline;overflow:visible;opacity:1;vector-effect:none;fill:#223382;fill-opacity:1;enable-background:accumulate;stop-color:#000000;stop-opacity:1"
         d="m 117.34961,57.775391 -0.6582,1.121093 31.78125,18.632813 0.65625,-1.121094 z"
         id="path21" /><path
         style="baseline-shift:baseline;display:inline;overflow:visible;opacity:1;vector-effect:none;fill:#223382;fill-opacity:1;enable-background:accumulate;stop-color:#000000;stop-opacity:1"
         d="m 103.61133,33.460937 c -40.3213,0 -73.11133,32.790031 -73.11133,73.111333 0,40.32129 32.79003,73.11328 73.11133,73.11328 40.3213,0 73.11328,-32.79199 73.11328,-73.11328 0,-40.321302 -32.79198,-73.111332 -73.11328,-73.111333 z m 0,9.699219 c 35.07903,0 63.41406,28.333081 63.41406,63.412114 0,35.07902 -28.33503,63.4121 -63.41406,63.4121 -35.07903,0 -63.412111,-28.33308 -63.412111,-63.4121 0,-35.079033 28.333081,-63.412114 63.412111,-63.412114 z"
         id="path22" /><path
         id="path4"
         style="fill:#223382;fill-opacity:1;stroke:#ff0000;stroke-width:0;stroke-miterlimit:0;paint-order:markers stroke fill"
         d="m 76.272864,123.47773 a 14.583825,14.583825 0 0 0 -14.548466,13.56662 h -0.03566 v 1.01699 12.55892 c 6.397034,6.0886 14.12638,10.79127 22.715409,13.63535 v -28.88403 -1.36942 h 0.04754 a 19.643638,19.643638 0 0 1 1.680517,-6.68642 14.583825,14.583825 0 0 0 -9.859346,-3.83801 z" /><path
         id="path23"
         style="fill:#223382;fill-opacity:1;stroke:#ff0000;stroke-width:0;stroke-miterlimit:0;paint-order:markers stroke fill"
         d="m 131.82296,123.21677 a 14.583825,14.583825 0 0 0 -9.94358,3.915 19.643638,19.643638 0 0 1 1.76372,6.87039 h 0.0481 v 1.36942 28.18536 c 8.65751,-3.09946 16.39603,-8.10282 22.71541,-14.50971 v -11.24737 -1.01699 h -0.0357 a 14.583825,14.583825 0 0 0 -14.54795,-13.5661 z m 14.58361,45.25925 c -0.19922,0.13929 -0.39885,0.27754 -0.59945,0.41496 h 0.59945 z" /><path
         id="path24"
         style="fill:#223382;fill-opacity:1;stroke:#ff0000;stroke-width:0;stroke-miterlimit:0;paint-order:markers stroke fill"
         d="m 104.04791,118.60206 a 17.808761,17.808761 0 0 0 -17.765321,16.56643 h -0.04341 v 1.24179 28.44632 c 5.334651,1.5235 10.972898,2.33888 16.807761,2.33888 6.56984,0 12.89053,-1.03381 18.80919,-2.94814 v -27.83706 -1.24179 h -0.0434 a 17.808761,17.808761 0 0 0 -17.76481,-16.56643 z" /></g></g></svg>
